<svg xmlns="http://www.w3.org/2000/svg" viewBox="0 0 187 187"><defs><style>.cls-1{fill:#f1c40f;}.cls-2{fill:#eace5c;}.cls-3{fill:#f39c12;}.cls-4{fill:#2c3e50;}</style></defs><g id="Layer_2" data-name="Layer 2"><g id="Layer_1-2" data-name="Layer 1"><path class="cls-1" d="M11.55,186.5a11.07,11.07,0,0,1-11-11.05V11.55A11.07,11.07,0,0,1,11.55.5h163.9A11.07,11.07,0,0,1,186.5,11.55V142.94L142.94,186.5Z"/><path class="cls-2" d="M175.45,1A10.56,10.56,0,0,1,186,11.55V142.74L142.74,186H11.55A10.56,10.56,0,0,1,1,175.45V11.55A10.56,10.56,0,0,1,11.55,1h163.9m0-1H11.55A11.55,11.55,0,0,0,0,11.55v163.9A11.55,11.55,0,0,0,11.55,187h131.6L187,143.15V11.55A11.55,11.55,0,0,0,175.45,0Z"/><polygon class="cls-3" points="144.5 143.5 185.94 143.5 144.5 184.94 144.5 143.5"/><path class="cls-2" d="M184.74,144,145,183.74V144h39.74m2.26-1H144v43h.15L187,143.15V143Z"/><path class="cls-4" d="M25.08,102.28A47.05,47.05,0,0,0,48.91,109c13.59,0,21.54-7.18,21.54-17.57,0-9.62-5.5-15.12-19.4-20.47C34.25,65,23.86,56.3,23.86,41.79c0-16,13.28-27.95,33.3-27.95,10.54,0,18.17,2.44,22.76,5L76.25,29.72A41,41,0,0,0,56.7,24.83c-14.05,0-19.4,8.41-19.4,15.43,0,9.62,6.26,14.36,20.47,19.86C75.18,66.84,84,75.24,84,90.36,84,106.25,72.28,120,48,120c-9.92,0-20.77-2.9-26.27-6.57Z"/><path class="cls-4" d="M72.48,148V56.72H85.34l29.25,46.18A256.23,256.23,0,0,1,131,132.56l.27-.14c-1.08-12.19-1.35-23.29-1.35-37.51V56.72H141V148H129.08l-29-46.32A290.68,290.68,0,0,1,83,71.21l-.41.13c.68,11.51,1,22.48,1,37.65v39Z"/></g></g></svg>